<svg id="Capa_1" data-name="Capa 1" xmlns="http://www.w3.org/2000/svg" viewBox="0 0 1018.6 547.19"><defs><style>.cls-1,.cls-3,.cls-5{fill:#e6e7e8;}.cls-1,.cls-3,.cls-4,.cls-5,.cls-6,.cls-7,.cls-8{stroke:#000;}.cls-1,.cls-2,.cls-3,.cls-4,.cls-5,.cls-6,.cls-7,.cls-8{stroke-linecap:square;stroke-linejoin:round;}.cls-1,.cls-7{stroke-width:5px;}.cls-2,.cls-4,.cls-7,.cls-8{fill:none;}.cls-2{stroke:#e91a00;}.cls-2,.cls-3{stroke-width:4px;}.cls-4,.cls-5,.cls-6{stroke-width:3px;}.cls-6{fill:#939598;}.cls-8{stroke-width:2px;}.cls-9{font-size:25px;font-family:Montserrat-Medium, Montserrat;font-weight:500;}.cls-10{letter-spacing:-0.01em;}.cls-11{letter-spacing:0em;}.cls-12{letter-spacing:-0.01em;}.cls-13{letter-spacing:0em;}.cls-14{letter-spacing:-0.01em;}.cls-15{letter-spacing:-0.02em;}.cls-16{letter-spacing:-0.01em;}.cls-17{letter-spacing:-0.01em;}.cls-18{letter-spacing:-0.01em;}</style></defs><polygon class="cls-1" points="907.58 544.69 582.93 436.18 582.93 111.4 691.84 2.5 1016.1 110.76 1016.1 436.18 907.58 544.69"/><line class="cls-2" x1="879.13" y1="222.44" x2="894.81" y2="238.69"/><line class="cls-2" x1="626.55" y1="138.24" x2="894.9" y2="406.45"/><line class="cls-2" x1="613.63" y1="149.08" x2="895.19" y2="430.11"/><line class="cls-2" x1="612.52" y1="171.98" x2="894.87" y2="454.52"/><line class="cls-2" x1="612.52" y1="195.79" x2="894.87" y2="478.17"/><line class="cls-2" x1="612.52" y1="219.92" x2="894.87" y2="502.63"/><line class="cls-2" x1="612.52" y1="243.99" x2="863.49" y2="495.16"/><line class="cls-2" x1="612.52" y1="267.98" x2="827.44" y2="483.18"/><line class="cls-2" x1="612.52" y1="292.5" x2="791.61" y2="471.27"/><line class="cls-2" x1="613.63" y1="389.47" x2="646.97" y2="422.85"/><line class="cls-2" x1="612.52" y1="364.79" x2="682.93" y2="434.37"/><line class="cls-2" x1="612.52" y1="340.22" x2="719.16" y2="446.47"/><line class="cls-2" x1="612.52" y1="316.95" x2="755.89" y2="459.39"/><line class="cls-2" x1="662.26" y1="149.75" x2="894.9" y2="382.35"/><line class="cls-2" x1="698.37" y1="161.76" x2="894.87" y2="358.45"/><line class="cls-2" x1="894.87" y1="334.21" x2="734.69" y2="173.83"/><line class="cls-2" x1="894.87" y1="309.34" x2="769.82" y2="185.51"/><line class="cls-2" x1="806.52" y1="197.71" x2="894.87" y2="286.4"/><line class="cls-2" x1="894.87" y1="262.4" x2="841.88" y2="209.47"/><polyline class="cls-3" points="907.58 219.27 907.58 544.69 1016.1 436.18 1016.1 110.76"/><polyline class="cls-4" points="894.87 215.06 894.87 505.6 612.52 411.73 612.52 133.22"/><line class="cls-4" x1="594.6" y1="439.98" x2="594.6" y2="115.28"/><polygon class="cls-5" points="894.87 227.08 594.6 127.26 594.6 115.28 894.87 215.06 894.87 227.08"/><polygon class="cls-6" points="894.87 527.86 594.6 428.86 612.52 411.73 894.87 505.6 894.87 527.86"/><path class="cls-3" d="M632,141.77" transform="translate(-49.06 -30.37)"/><polyline class="cls-3" points="691.45 2.89 1016.1 110.76 907.58 219.27 582.93 111.4 691.84 2.5"/><polyline class="cls-6" points="694.92 15.49 993.77 114.79 894.87 215.06 594.6 115.28 695.28 15.13"/><polygon class="cls-7" points="907.58 544.69 582.93 436.18 582.93 111.4 691.84 2.5 1016.1 110.76 1016.1 436.18 907.58 544.69"/><polygon class="cls-5" points="894.87 215.06 907.58 219.27 907.58 544.69 894.87 540.45 894.87 215.06"/><path class="cls-4" d="M661.58,163.59" transform="translate(-49.06 -30.37)"/><polygon class="cls-6" points="894.87 540.45 894.87 527.86 594.6 428.86 594.6 439.98 894.87 540.45"/><polygon class="cls-5" points="594.6 127.26 612.52 133.22 612.52 411.73 594.6 428.86 594.6 127.26"/><line class="cls-8" x1="1" y1="110.89" x2="693.4" y2="110.89"/><polygon points="687.46 119.6 719.98 110.89 687.46 102.17 687.46 119.6"/><text class="cls-9" transform="translate(57.52 91.24)"><tspan class="cls-10">C</tspan><tspan x="17.9" y="0">a</tspan><tspan class="cls-11" x="32.85" y="0">p</tspan><tspan x="49.77" y="0">as Supe</tspan><tspan class="cls-10" x="148.77" y="0">r</tspan><tspan x="158.85" y="0">io</tspan><tspan class="cls-12" x="181.7" y="0">r</tspan><tspan x="191.65" y="0">es</tspan></text><line class="cls-8" x1="1" y1="227.08" x2="639.26" y2="227.08"/><polygon points="633.32 235.8 665.84 227.08 633.32 218.37 633.32 235.8"/><text class="cls-9" transform="translate(57.52 207.44)">Relle<tspan class="cls-13" x="62.72" y="0">n</tspan><tspan x="79.82" y="0">o</tspan></text><line class="cls-8" x1="1" y1="343.27" x2="535.71" y2="343.27"/><polygon points="529.77 351.99 562.29 343.27 529.77 334.56 529.77 351.99"/><text class="cls-9" transform="translate(57.52 323.63)"><tspan class="cls-14">P</tspan><tspan x="17.67" y="0">a</tspan><tspan class="cls-12" x="32.62" y="0">r</tspan><tspan x="42.57" y="0">edes </tspan><tspan class="cls-12" x="109.47" y="0">E</tspan><tspan x="125.92" y="0">x</tspan><tspan class="cls-15" x="139.72" y="0">t</tspan><tspan x="149.62" y="0">e</tspan><tspan class="cls-10" x="164.92" y="0">r</tspan><tspan x="175" y="0">nas</tspan></text><line class="cls-8" x1="1" y1="459.47" x2="599.97" y2="459.47"/><polygon points="594.03 468.18 626.55 459.47 594.03 450.75 594.03 468.18"/><text class="cls-9" transform="translate(57.52 439.82)"><tspan class="cls-10">C</tspan><tspan x="17.9" y="0">a</tspan><tspan class="cls-11" x="32.85" y="0">p</tspan><tspan x="49.77" y="0">as In</tspan><tspan class="cls-16" x="108.75" y="0">f</tspan><tspan x="117.37" y="0">e</tspan><tspan class="cls-17" x="132.67" y="0">r</tspan><tspan x="142.75" y="0">io</tspan><tspan class="cls-18" x="165.6" y="0">r</tspan><tspan x="175.55" y="0">es</tspan></text></svg>