<svg id="Capa_1" data-name="Capa 1" xmlns="http://www.w3.org/2000/svg" viewBox="0 0 148 143"><defs><style>.cls-1{fill:none;stroke:#f7b359;stroke-linecap:round;stroke-linejoin:round;stroke-width:3px;}</style></defs><path class="cls-1" d="M22.93,8.39H90.06A11.3,11.3,0,0,1,98,11.61l25.55,24.93a11.32,11.32,0,0,1,3.41,8.1v87.88a2.84,2.84,0,0,1-2.84,2.84H22.93a2.84,2.84,0,0,1-2.84-2.84V11.23A2.84,2.84,0,0,1,22.93,8.39Z"/><path class="cls-1" d="M86.15,8.39V42.71a5.42,5.42,0,0,0,5.42,5.42h35.36"/><line class="cls-1" x1="46.69" y1="66.7" x2="100.44" y2="66.7"/><line class="cls-1" x1="46.69" y1="85.86" x2="100.44" y2="85.86"/><line class="cls-1" x1="46.69" y1="105.03" x2="100.44" y2="105.03"/></svg>