<svg id="Capa_1" data-name="Capa 1" xmlns="http://www.w3.org/2000/svg" viewBox="0 0 130 60"><defs><style>.cls-1{fill:#055d7c;}</style></defs><path d="M56,48.78V37.17l-10-5.8c-1.62.92-3.27,1.88-4.93,2.86s-3.35,2-5.05,2.94V48.66l10,5.8Zm4.3,10.56-5.81-4.88L46,59.34q-3.6-2.1-7.12-4.12t-7-4.12V34.73q3.53-2,7-4.08T46,26.49c2.4,1.39,4.78,2.77,7.14,4.12l7.14,4.12Z"/><path d="M62.77,51.6,67,49.16l10,5.81,5.69-3.37L62.66,40V35.23L76.93,27l14,8.24-4.06,2.33-10-5.69L66.84,37.56,91,51.6l-14,8.12Z"/><path d="M101.62,51.6l4.18-2.44,10,5.81,5.69-3.37L101.5,40V35.23L115.78,27l14,8.24-4.06,2.33-10-5.69-10.1,5.69,24.14,14-14,8.12Z"/><path class="cls-1" d="M16.41,23.33V30.7l-12.19,7V49.26l10.11,5.88,10.11-5.87V37.73l-5.89-3.39a2,2,0,0,1-.75-2.86,1.92,1.92,0,0,1,2.69-.71l8,4.61V51.62L14.33,59.85.18,51.62V35.38l12.19-7v-5Z"/><path class="cls-1" d="M13.64,24.63,9.16,20.07a2.08,2.08,0,0,1-.59-1.45V14.79H6.16a2.07,2.07,0,0,1-2.07-2.07V2.22A2.07,2.07,0,0,1,6.16.15H22.62A2.08,2.08,0,0,1,24.7,2.22v10.5a2.08,2.08,0,0,1-2.08,2.07h-2.4v3.83a2.09,2.09,0,0,1-.6,1.45l-4.48,4.56A1.05,1.05,0,0,1,13.64,24.63Zm7-20.42H8.13v6.53H20.61Zm-8,13.58,1.77,1.8,1.77-1.8v-3H12.62Z"/><polygon points="97.94 35.59 97.94 50.4 93.8 53.5 93.8 32.29 97.94 35.59"/></svg>