<svg id="Capa_1" data-name="Capa 1" xmlns="http://www.w3.org/2000/svg" viewBox="0 0 393.62 115.26"><path d="M11.82,19.15H31.54v94.59H77.71v16.59H11.82Z" transform="translate(-11.82 -17.11)"/><path d="M86,74.3c0-36,20.06-57.19,49-57.19s49,21.32,49,57.19-20.06,58.07-49,58.07S86,110.27,86,74.3Zm77.8,0c0-25-11.29-40-28.77-40S106.31,49.34,106.31,74.3s11.29,40.93,28.76,40.93S163.84,99.26,163.84,74.3Z" transform="translate(-11.82 -17.11)"/><path d="M200.62,75.12c0-36.38,23.06-58,52.63-58a45.73,45.73,0,0,1,33.6,14.08L276.31,43.9c-5.58-5.44-12.11-9.65-22.44-9.65-19.72,0-33,15.3-33,40.25,0,25.37,11.76,40.73,34.07,40.73,6.18,0,12.3-1.76,15.84-4.89v-24h-21V70.15h38.63v49c-7.41,7.48-20.27,13.19-35.5,13.19C223,132.37,200.62,111.9,200.62,75.12Z" transform="translate(-11.82 -17.11)"/><path d="M307.38,74.3c0-36,20.06-57.19,49-57.19s49,21.32,49,57.19-20.06,58.07-49,58.07S307.38,110.27,307.38,74.3Zm77.79,0c0-25-11.28-40-28.76-40S327.65,49.34,327.65,74.3s11.28,40.93,28.76,40.93S385.17,99.26,385.17,74.3Z" transform="translate(-11.82 -17.11)"/></svg>