<svg id="Capa_1" data-name="Capa 1" xmlns="http://www.w3.org/2000/svg" viewBox="0 0 28.49 60"><defs><style>.cls-1{fill:#055d7c;}</style></defs><path class="cls-1" d="M16.41,23.33V30.7l-12.19,7V49.26l10.11,5.88,10.11-5.87V37.73l-5.89-3.39a2,2,0,0,1-.75-2.86,1.92,1.92,0,0,1,2.69-.71l8,4.61V51.62L14.33,59.85.18,51.62V35.38l12.19-7v-5Z"/><path class="cls-1" d="M13.64,24.63,9.16,20.07a2.08,2.08,0,0,1-.59-1.45V14.79H6.16a2.07,2.07,0,0,1-2.07-2.07V2.22A2.07,2.07,0,0,1,6.16.15H22.62A2.08,2.08,0,0,1,24.7,2.22v10.5a2.08,2.08,0,0,1-2.08,2.07h-2.4v3.83a2.09,2.09,0,0,1-.6,1.45l-4.48,4.56A1.05,1.05,0,0,1,13.64,24.63Zm7-20.42H8.13v6.53H20.61Zm-8,13.58,1.77,1.8,1.77-1.8v-3H12.62Z"/></svg>